<svg width="651" height="150" viewBox="0 0 651 150" fill="none" xmlns="http://www.w3.org/2000/svg">
<path d="M333.117 17.5781C337.945 25.1409 344.367 35.463 350.777 46.5391C357.206 57.6467 363.53 69.3562 368.219 79.7266C370.563 84.9127 372.434 89.6219 373.703 93.6582C375.012 97.8206 375.5 100.709 375.5 102.436C375.5 121.213 357.69 138.5 333 138.5C308.31 138.5 290.5 121.213 290.5 102.436C290.5 100.709 290.988 97.8206 292.297 93.6582C293.566 89.6219 295.437 84.9127 297.781 79.7266C302.47 69.3562 308.794 57.6467 315.223 46.5391C321.633 35.463 328.055 25.1409 332.883 17.5781C332.922 17.5167 332.961 17.4555 333 17.3945C333.039 17.4555 333.078 17.5167 333.117 17.5781Z" stroke="url(#paint0_linear_263_87)" stroke-width="19"/>
<path d="M333.786 50.0849C334.32 50.1825 334.716 50.3146 335.21 50.5616C336.675 51.291 337.691 52.5431 338.122 54.1398L338.254 54.6223L338.283 78.929L338.312 103.236L338.8 103.557C341.31 105.235 342.901 107.618 343.515 110.639C343.67 111.386 343.722 113.069 343.625 113.913C343.085 118.491 339.684 122.253 335.176 123.252C329.49 124.51 323.792 121.041 322.322 115.412C322.034 114.315 322 113.993 322 112.604C322 111.231 322.046 110.875 322.35 109.737C322.873 107.802 324.068 105.872 325.567 104.551C326.055 104.115 326.79 103.569 327.181 103.351L327.428 103.213V100.238V97.2682H325.561H323.694V96.579V95.8898H325.561H327.428V91.4959V87.1021H325.561H323.694V86.4129V85.7237H325.561H327.428V81.3298V76.936H325.561H323.694V76.2468V75.5576L325.544 75.5461L327.399 75.5288L327.416 71.1465L327.428 66.7699H325.561H323.694V66.052V65.334H325.561H327.428V60.0902C327.428 55.2081 327.439 54.8176 327.537 54.3351C327.755 53.2668 328.266 52.3536 329.088 51.5495C330.345 50.3261 332.097 49.7747 333.786 50.0849ZM331.833 52.0894C330.747 52.434 329.88 53.2898 329.507 54.3868L329.352 54.852L329.335 79.6183L329.323 104.384L328.645 104.781C326.865 105.838 325.762 106.969 324.935 108.595C323.476 111.455 323.631 114.792 325.348 117.457C326.658 119.496 328.68 120.874 331.121 121.403C331.982 121.586 333.682 121.586 334.567 121.403C337.347 120.817 339.564 119.111 340.839 116.572C342.045 114.166 342.034 111.133 340.81 108.692C339.995 107.055 338.783 105.797 337.054 104.787L336.33 104.367V79.8652C336.33 64.1911 336.307 55.2311 336.273 54.9784C336.152 54.1743 335.842 53.5482 335.25 52.9567C334.866 52.5718 334.222 52.1928 333.746 52.0779C333.602 52.0434 333.435 51.9975 333.372 51.986C333.154 51.9343 332.109 52.0032 331.833 52.0894Z" fill="url(#paint1_linear_263_87)"/>
<path d="M334.952 94.0174V105.235L335.394 105.395C337.898 106.28 339.794 108.445 340.356 111.053C340.546 111.932 340.546 113.362 340.362 114.206C339.661 117.336 337.261 119.662 334.148 120.219C333.43 120.346 332.224 120.346 331.506 120.219C329.105 119.789 327.037 118.249 325.952 116.078C325.641 115.464 325.452 114.93 325.297 114.206C325.107 113.356 325.107 111.926 325.297 111.053C325.86 108.445 327.755 106.28 330.253 105.395L330.701 105.235V94.0174V82.7945H332.827H334.952V94.0174Z" fill="url(#paint2_linear_263_87)"/>
<g filter="url(#filter0_d_263_87)">
<path d="M4.63636 30.6818V23.1818H57V30.6818H35.0455V93H26.5909V30.6818H4.63636ZM83.3182 94.0909C78.2727 94.0909 73.9205 92.9773 70.2614 90.75C66.625 88.5 63.8182 85.3636 61.8409 81.3409C59.8864 77.2955 58.9091 72.5909 58.9091 67.2273C58.9091 61.8636 59.8864 57.1364 61.8409 53.0455C63.8182 48.9318 66.5682 45.7273 70.0909 43.4318C73.6364 41.1136 77.7727 39.9545 82.5 39.9545C85.2273 39.9545 87.9205 40.4091 90.5795 41.3182C93.2386 42.2273 95.6591 43.7045 97.8409 45.75C100.023 47.7727 101.761 50.4545 103.057 53.7955C104.352 57.1364 105 61.25 105 66.1364V69.5455H64.6364V62.5909H96.8182C96.8182 59.6364 96.2273 57 95.0455 54.6818C93.8864 52.3636 92.2273 50.5341 90.0682 49.1932C87.9318 47.8523 85.4091 47.1818 82.5 47.1818C79.2955 47.1818 76.5227 47.9773 74.1818 49.5682C71.8636 51.1364 70.0795 53.1818 68.8295 55.7045C67.5795 58.2273 66.9545 60.9318 66.9545 63.8182V68.4545C66.9545 72.4091 67.6364 75.7614 69 78.5114C70.3864 81.2386 72.3068 83.3182 74.7614 84.75C77.2159 86.1591 80.0682 86.8636 83.3182 86.8636C85.4318 86.8636 87.3409 86.5682 89.0455 85.9773C90.7727 85.3636 92.2614 84.4545 93.5114 83.25C94.7614 82.0227 95.7273 80.5 96.4091 78.6818L104.182 80.8636C103.364 83.5 101.989 85.8182 100.057 87.8182C98.125 89.7955 95.7386 91.3409 92.8977 92.4545C90.0568 93.5455 86.8636 94.0909 83.3182 94.0909ZM117.239 93V40.6364H158.42V93H150.375V48.1364H125.284V93H117.239ZM168.477 93V85.5H170.386C171.955 85.5 173.261 85.1932 174.307 84.5795C175.352 83.9432 176.193 82.8409 176.83 81.2727C177.489 79.6818 177.989 77.4773 178.33 74.6591C178.693 71.8182 178.955 68.2045 179.114 63.8182L180.068 40.6364H214.977V93H206.932V48.1364H187.705L186.886 66.8182C186.705 71.1136 186.318 74.8977 185.727 78.1705C185.159 81.4205 184.284 84.1477 183.102 86.3523C181.943 88.5568 180.398 90.2159 178.466 91.3295C176.534 92.4432 174.114 93 171.205 93H168.477ZM251.011 94.0909C246.284 94.0909 242.136 92.9659 238.568 90.7159C235.023 88.4659 232.25 85.3182 230.25 81.2727C228.273 77.2273 227.284 72.5 227.284 67.0909C227.284 61.6364 228.273 56.875 230.25 52.8068C232.25 48.7386 235.023 45.5795 238.568 43.3295C242.136 41.0795 246.284 39.9545 251.011 39.9545C255.739 39.9545 259.875 41.0795 263.42 43.3295C266.989 45.5795 269.761 48.7386 271.739 52.8068C273.739 56.875 274.739 61.6364 274.739 67.0909C274.739 72.5 273.739 77.2273 271.739 81.2727C269.761 85.3182 266.989 88.4659 263.42 90.7159C259.875 92.9659 255.739 94.0909 251.011 94.0909ZM251.011 86.8636C254.602 86.8636 257.557 85.9432 259.875 84.1023C262.193 82.2614 263.909 79.8409 265.023 76.8409C266.136 73.8409 266.693 70.5909 266.693 67.0909C266.693 63.5909 266.136 60.3295 265.023 57.3068C263.909 54.2841 262.193 51.8409 259.875 49.9773C257.557 48.1136 254.602 47.1818 251.011 47.1818C247.42 47.1818 244.466 48.1136 242.148 49.9773C239.83 51.8409 238.114 54.2841 237 57.3068C235.886 60.3295 235.33 63.5909 235.33 67.0909C235.33 70.5909 235.886 73.8409 237 76.8409C238.114 79.8409 239.83 82.2614 242.148 84.1023C244.466 85.9432 247.42 86.8636 251.011 86.8636Z" fill="url(#paint3_linear_263_87)"/>
</g>
<path d="M413.636 149.091C408.727 149.091 404.5 147.932 400.955 145.614C397.409 143.295 394.682 140.102 392.773 136.034C390.864 131.966 389.909 127.318 389.909 122.091C389.909 116.773 390.886 112.08 392.841 108.011C394.818 103.92 397.568 100.727 401.091 98.4318C404.636 96.1136 408.773 94.9545 413.5 94.9545C417.182 94.9545 420.5 95.6364 423.455 97C426.409 98.3636 428.83 100.273 430.716 102.727C432.602 105.182 433.773 108.045 434.227 111.318H426.182C425.568 108.932 424.205 106.818 422.091 104.977C420 103.114 417.182 102.182 413.636 102.182C410.5 102.182 407.75 103 405.386 104.636C403.045 106.25 401.216 108.534 399.898 111.489C398.602 114.42 397.955 117.864 397.955 121.818C397.955 125.864 398.591 129.386 399.864 132.386C401.159 135.386 402.977 137.716 405.318 139.375C407.682 141.034 410.455 141.864 413.636 141.864C415.727 141.864 417.625 141.5 419.33 140.773C421.034 140.045 422.477 139 423.659 137.636C424.841 136.273 425.682 134.636 426.182 132.727H434.227C433.773 135.818 432.648 138.602 430.852 141.08C429.08 143.534 426.727 145.489 423.795 146.943C420.886 148.375 417.5 149.091 413.636 149.091ZM467.943 149.091C462.898 149.091 458.545 147.977 454.886 145.75C451.25 143.5 448.443 140.364 446.466 136.341C444.511 132.295 443.534 127.591 443.534 122.227C443.534 116.864 444.511 112.136 446.466 108.045C448.443 103.932 451.193 100.727 454.716 98.4318C458.261 96.1136 462.398 94.9545 467.125 94.9545C469.852 94.9545 472.545 95.4091 475.205 96.3182C477.864 97.2273 480.284 98.7045 482.466 100.75C484.648 102.773 486.386 105.455 487.682 108.795C488.977 112.136 489.625 116.25 489.625 121.136V124.545H449.261V117.591H481.443C481.443 114.636 480.852 112 479.67 109.682C478.511 107.364 476.852 105.534 474.693 104.193C472.557 102.852 470.034 102.182 467.125 102.182C463.92 102.182 461.148 102.977 458.807 104.568C456.489 106.136 454.705 108.182 453.455 110.705C452.205 113.227 451.58 115.932 451.58 118.818V123.455C451.58 127.409 452.261 130.761 453.625 133.511C455.011 136.239 456.932 138.318 459.386 139.75C461.841 141.159 464.693 141.864 467.943 141.864C470.057 141.864 471.966 141.568 473.67 140.977C475.398 140.364 476.886 139.455 478.136 138.25C479.386 137.023 480.352 135.5 481.034 133.682L488.807 135.864C487.989 138.5 486.614 140.818 484.682 142.818C482.75 144.795 480.364 146.341 477.523 147.455C474.682 148.545 471.489 149.091 467.943 149.091ZM496.989 103.136V95.6364H539.534V103.136H522.352V148H514.307V103.136H496.989ZM559.315 136.136L584.543 95.6364H593.815V148H585.77V107.5L560.679 148H551.27V95.6364H559.315V136.136Z" fill="url(#paint4_linear_263_87)"/>
<defs>
<filter id="filter0_d_263_87" x="0.636353" y="23.1818" width="278.102" height="78.9091" filterUnits="userSpaceOnUse" color-interpolation-filters="sRGB">
<feFlood flood-opacity="0" result="BackgroundImageFix"/>
<feColorMatrix in="SourceAlpha" type="matrix" values="0 0 0 0 0 0 0 0 0 0 0 0 0 0 0 0 0 0 127 0" result="hardAlpha"/>
<feOffset dy="4"/>
<feGaussianBlur stdDeviation="2"/>
<feComposite in2="hardAlpha" operator="out"/>
<feColorMatrix type="matrix" values="0 0 0 0 0 0 0 0 0 0 0 0 0 0 0 0 0 0 0.25 0"/>
<feBlend mode="normal" in2="BackgroundImageFix" result="effect1_dropShadow_263_87"/>
<feBlend mode="normal" in="SourceGraphic" in2="effect1_dropShadow_263_87" result="shape"/>
</filter>
<linearGradient id="paint0_linear_263_87" x1="333" y1="0" x2="333" y2="148" gradientUnits="userSpaceOnUse">
<stop stop-color="#46CEFF"/>
<stop offset="1" stop-color="#4C48C7"/>
</linearGradient>
<linearGradient id="paint1_linear_263_87" x1="332.837" y1="50" x2="332.837" y2="123.51" gradientUnits="userSpaceOnUse">
<stop offset="0.283654" stop-color="#C82020"/>
<stop offset="1" stop-color="#1C148B"/>
</linearGradient>
<linearGradient id="paint2_linear_263_87" x1="332.827" y1="82.7945" x2="332.827" y2="120.314" gradientUnits="userSpaceOnUse">
<stop offset="0.283654" stop-color="#C82020"/>
<stop offset="1" stop-color="#1C148B"/>
</linearGradient>
<linearGradient id="paint3_linear_263_87" x1="0" y1="46.5" x2="281" y2="46.5" gradientUnits="userSpaceOnUse">
<stop stop-color="#C82020"/>
<stop offset="1" stop-color="#00B9FD"/>
</linearGradient>
<linearGradient id="paint4_linear_263_87" x1="385" y1="101.5" x2="651" y2="101.5" gradientUnits="userSpaceOnUse">
<stop stop-color="#00B9FD"/>
<stop offset="1" stop-color="#C82020"/>
</linearGradient>
</defs>
</svg>
